<?xml version="1.0" encoding="UTF-8" standalone="no"?>
<!-- Created with Inkscape (http://www.inkscape.org/) -->

<svg
   width="124.99999mm"
   height="199.99995mm"
   viewBox="0 0 124.99999 199.99996"
   version="1.1"
   id="svg5"
   inkscape:version="1.1.2 (b8e25be833, 2022-02-05)"
   sodipodi:docname="Clouds.svg"
   inkscape:export-filename="/home/vincetiu8/Documents/github/mit-blueprint-2022/Assets/Sprites/Clouds.png"
   inkscape:export-xdpi="200"
   inkscape:export-ydpi="200"
   xmlns:inkscape="http://www.inkscape.org/namespaces/inkscape"
   xmlns:sodipodi="http://sodipodi.sourceforge.net/DTD/sodipodi-0.dtd"
   xmlns="http://www.w3.org/2000/svg"
   xmlns:svg="http://www.w3.org/2000/svg">
  <sodipodi:namedview
     id="namedview7"
     pagecolor="#505050"
     bordercolor="#eeeeee"
     borderopacity="1"
     inkscape:pageshadow="0"
     inkscape:pageopacity="0"
     inkscape:pagecheckerboard="0"
     inkscape:document-units="mm"
     showgrid="false"
     fit-margin-top="0"
     fit-margin-left="0"
     fit-margin-right="0"
     fit-margin-bottom="0"
     inkscape:zoom="0.77771465"
     inkscape:cx="61.076386"
     inkscape:cy="580.54712"
     inkscape:window-width="2560"
     inkscape:window-height="1376"
     inkscape:window-x="0"
     inkscape:window-y="27"
     inkscape:window-maximized="1"
     inkscape:current-layer="layer1" />
  <defs
     id="defs2" />
  <g
     inkscape:label="Layer 1"
     inkscape:groupmode="layer"
     id="layer1"
     transform="translate(-19.161104,-15.994372)">
    <path
       id="path846"
       style="fill:#ffffff;fill-opacity:1;stroke:none;stroke-width:2.65109;stroke-opacity:1;paint-order:markers stroke fill"
       d="m 46.226331,16.309599 a 8.6616372,8.6616372 0 0 0 -8.514217,7.102853 9.6794771,9.6794771 0 0 0 -5.733686,-1.881819 9.6794771,9.6794771 0 0 0 -9.679531,9.679531 9.6794771,9.6794771 0 0 0 3.883649,7.744009 7.1373654,7.1373654 0 0 0 -1.789207,4.719344 7.1373654,7.1373654 0 0 0 7.137377,7.137377 7.1373654,7.1373654 0 0 0 4.65605,-1.734134 9.73669,9.73669 0 0 0 8.833426,5.652034 9.73669,9.73669 0 0 0 9.736797,-9.736797 9.73669,9.73669 0 0 0 -0.02685,-0.342225 10.581589,10.581589 0 0 0 6.987226,2.644082 10.581589,10.581589 0 0 0 10.581534,-10.581534 10.581589,10.581589 0 0 0 -9.293194,-10.502348 7.4991234,7.4991234 0 0 0 -7.395484,-6.57979 7.4991234,7.4991234 0 0 0 -2.296105,0.363047 8.6616372,8.6616372 0 0 0 -7.087783,-3.68363 z" />
    <path
       id="path1028"
       style="fill:#ffffff;fill-opacity:1;stroke:none;stroke-width:5.37132;stroke-opacity:1;paint-order:markers stroke fill"
       d="m 120.77574,90.994372 a 12.883431,12.883431 0 0 0 -12.87986,12.788818 14.066631,14.066631 0 0 0 -13.734776,14.05453 14.066631,14.066631 0 0 0 14.066746,14.0662 14.066631,14.066631 0 0 0 9.01163,-3.27645 14.37638,14.37638 0 0 0 12.54566,7.36785 14.37638,14.37638 0 0 0 14.37596,-14.37652 14.37638,14.37638 0 0 0 -11.06232,-13.98903 12.883431,12.883431 0 0 0 0.56014,-3.75221 12.883431,12.883431 0 0 0 -12.88318,-12.883188 z" />
    <path
       id="path1034"
       style="fill:#ffffff;fill-opacity:1;stroke:none;stroke-width:3.32213;stroke-opacity:1;paint-order:markers stroke fill"
       d="m 58.035457,90.994372 a 10.81763,10.81763 0 0 0 -10.653536,8.97695 11.731718,11.731718 0 0 0 -7.414351,-2.64107 11.731718,11.731718 0 0 0 -11.731662,11.731668 11.731718,11.731718 0 0 0 1.011859,4.74581 11.960568,11.960568 0 0 0 -10.086663,11.80995 11.960568,11.960568 0 0 0 11.960337,11.96068 11.960568,11.960568 0 0 0 8.121656,-3.18116 10.599575,10.599575 0 0 0 7.798218,3.42288 10.599575,10.599575 0 0 0 10.56358,-9.75395 10.708106,10.708106 0 0 0 0.848079,0.0354 10.708106,10.708106 0 0 0 10.70813,-10.70813 10.708106,10.708106 0 0 0 -3.50082,-7.91805 10.81763,10.81763 0 0 0 3.192834,-7.66328 10.81763,10.81763 0 0 0 -10.817661,-10.817658 z" />
    <path
       id="path1044"
       style="fill:#ffffff;fill-opacity:1;stroke:none;stroke-width:3.77905;stroke-opacity:1;paint-order:markers stroke fill"
       d="m 117.60739,165.99437 a 11.052939,11.052939 0 0 0 -11.05291,11.05292 11.052939,11.052939 0 0 0 2.30557,6.74798 11.639364,11.639364 0 0 0 -3.05939,-0.4105 11.639364,11.639364 0 0 0 -11.639556,11.63957 11.639364,11.639364 0 0 0 11.581756,11.63682 9.2335265,9.2335265 0 0 0 9.17697,8.27358 9.2335265,9.2335265 0 0 0 7.65412,-4.07214 14.985009,14.985009 0 0 0 3.41677,0.39799 14.985009,14.985009 0 0 0 14.98524,-14.98484 14.985009,14.985009 0 0 0 -1.90172,-7.30456 11.077031,11.077031 0 0 0 5.08686,-9.30938 11.077031,11.077031 0 0 0 -11.07713,-11.07714 11.077031,11.077031 0 0 0 -6.45192,2.08138 11.052939,11.052939 0 0 0 -9.02466,-4.67168 z" />
    <path
       id="path1054"
       style="fill:#ffffff;fill-opacity:1;stroke:none;stroke-width:3.51466;stroke-miterlimit:4;stroke-dasharray:none;stroke-opacity:1;paint-order:markers stroke fill"
       d="m 49.459828,165.99436 a 10.516567,10.516567 0 0 0 -7.232683,2.88712 9.4074838,9.4074838 0 0 0 -4.332852,-1.05779 9.4074838,9.4074838 0 0 0 -9.407466,9.40746 9.4074838,9.4074838 0 0 0 0.0062,0.16129 8.4440258,8.4440258 0 0 0 -0.887785,-0.0469 8.4440258,8.4440258 0 0 0 -8.444124,8.44412 8.4440258,8.4440258 0 0 0 3.822124,7.06123 9.2773977,9.2773977 0 0 0 -2.703312,6.53706 9.2773977,9.2773977 0 0 0 9.27742,9.27742 9.2773977,9.2773977 0 0 0 3.035686,-0.51726 9.6090632,9.6090632 0 0 0 9.439066,7.84621 9.6090632,9.6090632 0 0 0 9.60907,-9.60906 9.6090632,9.6090632 0 0 0 -1.8929,-5.72557 11.918163,11.918163 0 0 0 4.566787,-9.37622 11.918163,11.918163 0 0 0 -1.081759,-4.9591 10.516567,10.516567 0 0 0 6.743019,-9.81358 10.516567,10.516567 0 0 0 -10.516468,-10.51647 z" />
    <path
       id="path1066"
       style="fill:#ffffff;fill-opacity:1;stroke:none;stroke-width:4.35432;stroke-opacity:1;paint-order:markers stroke fill"
       d="m 107.16795,15.994372 a 13.006772,13.006772 0 0 0 -13.006846,13.00685 13.006772,13.006772 0 0 0 4.79825,10.083885 12.768779,12.768779 0 0 0 -1.73533,6.422869 12.768779,12.768779 0 0 0 12.768786,12.768783 12.768779,12.768779 0 0 0 3.85273,-0.598545 17.236338,17.236338 0 0 0 13.0793,6.02864 17.236338,17.236338 0 0 0 17.23626,-17.236257 17.236338,17.236338 0 0 0 -10.13069,-15.702546 10.029567,10.029567 0 0 0 0.77541,-3.852281 10.029567,10.029567 0 0 0 -10.02944,-10.029883 10.029567,10.029567 0 0 0 -7.73426,3.651117 13.006772,13.006772 0 0 0 -9.87417,-4.542632 z" />
  </g>
</svg>
